<svg width="16" height="20" viewBox="0 0 16 20" fill="none" xmlns="http://www.w3.org/2000/svg">
<path d="M5.61348 12.7599C6.30094 13.1565 6.53687 14.0433 6.14026 14.7287L3.97822 18.4752C3.58161 19.1626 2.69482 19.3986 2.0094 19.0019L2.00736 18.9999C1.3199 18.6033 1.08398 17.7165 1.48059 17.0311L3.64262 13.2847C4.03923 12.6013 4.92399 12.3633 5.61348 12.7599Z" stroke="#12B0C9" stroke-miterlimit="10" stroke-linecap="round" stroke-linejoin="round"/>
<path d="M13.9465 8.4168C12.5533 10.829 9.46785 11.6568 7.05361 10.2636C4.64141 8.87036 3.81362 5.78493 5.20684 3.3707C6.60006 0.958491 9.68546 0.130694 12.0997 1.52392C14.5139 2.91714 15.3397 6.00256 13.9465 8.4168Z" stroke="#12B0C9" stroke-miterlimit="10" stroke-linecap="round" stroke-linejoin="round"/>
<path d="M7.05351 10.2633L5.61353 12.7589" stroke="#12B0C9" stroke-miterlimit="10" stroke-linecap="round" stroke-linejoin="round"/>
</svg>
